<?xml version="1.0" encoding="UTF-8" standalone="no"?>
<svg
   xmlns:dc="http://purl.org/dc/elements/1.1/"
   xmlns:cc="http://creativecommons.org/ns#"
   xmlns:rdf="http://www.w3.org/1999/02/22-rdf-syntax-ns#"
   xmlns:svg="http://www.w3.org/2000/svg"
   xmlns="http://www.w3.org/2000/svg"
   xmlns:sodipodi="http://sodipodi.sourceforge.net/DTD/sodipodi-0.dtd"
   xmlns:inkscape="http://www.inkscape.org/namespaces/inkscape"
   width="76"
   height="66"
   version="1.1"
   id="svg72"
   sodipodi:docname="slider.svg"
   inkscape:version="0.92.5 (2060ec1f9f, 2020-04-08)">
  <metadata
     id="metadata78">
    <rdf:RDF>
      <cc:Work
         rdf:about="">
        <dc:format>image/svg+xml</dc:format>
        <dc:type
           rdf:resource="http://purl.org/dc/dcmitype/StillImage" />
      </cc:Work>
    </rdf:RDF>
  </metadata>
  <defs
     id="defs76" />
  <sodipodi:namedview
     pagecolor="#ffffff"
     bordercolor="#666666"
     borderopacity="1"
     objecttolerance="10"
     gridtolerance="10"
     guidetolerance="10"
     inkscape:pageopacity="0"
     inkscape:pageshadow="2"
     inkscape:window-width="1366"
     inkscape:window-height="696"
     id="namedview74"
     showgrid="true"
     inkscape:zoom="3.9694094"
     inkscape:cx="52.565696"
     inkscape:cy="55.330626"
     inkscape:window-x="0"
     inkscape:window-y="0"
     inkscape:window-maximized="1"
     inkscape:current-layer="svg72">
    <inkscape:grid
       type="xygrid"
       id="grid885" />
  </sodipodi:namedview>
  <g
     stroke-width=".91667"
     id="g40"
     style="fill:#bd93f9;fill-opacity:1">
    <g
       id="horizontal-slider-handle"
       transform="matrix(.75 0 0 .75 -18.75 28)"
       style="fill:#bd93f9;fill-opacity:1">
      <rect
         x="25"
         y="4"
         width="32"
         height="32"
         opacity="0"
         id="rect2"
         style="fill:#bd93f9;fill-opacity:1" />
      <circle
         cx="41"
         cy="20"
         r="8"
         fill="#4285f4"
         id="circle4"
         style="fill:#bd93f9;fill-opacity:1" />
    </g>
    <g
       id="horizontal-slider-hover"
       transform="matrix(.75 0 0 .75 6.25 27)"
       style="fill:#bd93f9;fill-opacity:1">
      <rect
         x="25"
         y="4"
         width="32"
         height="32"
         opacity="0"
         id="rect7"
         style="fill:#bd93f9;fill-opacity:1" />
      <circle
         cx="41"
         cy="20"
         r="16"
         fill="#4285f4"
         opacity=".2"
         id="circle9"
         style="fill:#bd93f9;fill-opacity:1" />
      <circle
         cx="41"
         cy="20"
         r="8"
         fill="#4285f4"
         id="circle11"
         style="fill:#bd93f9;fill-opacity:1" />
    </g>
    <g
       id="horizontal-slider-focus"
       transform="matrix(.75 0 0 .75 31.25 28)"
       style="fill:#bd93f9;fill-opacity:1">
      <rect
         x="25"
         y="4"
         width="32"
         height="32"
         opacity="0"
         id="rect14"
         style="fill:#bd93f9;fill-opacity:1" />
      <circle
         cx="41"
         cy="20"
         r="16"
         fill="#4285f4"
         opacity=".3"
         id="circle16"
         style="fill:#bd93f9;fill-opacity:1" />
      <circle
         cx="41"
         cy="20"
         r="8"
         fill="#4285f4"
         id="circle18"
         style="fill:#bd93f9;fill-opacity:1" />
    </g>
    <g
       id="vertical-slider-handle"
       transform="matrix(.75 0 0 .75 -18.75 -3)"
       style="fill:#bd93f9;fill-opacity:1">
      <rect
         x="25"
         y="4"
         width="32"
         height="32"
         opacity="0"
         id="rect21"
         style="fill:#bd93f9;fill-opacity:1" />
      <circle
         cx="41"
         cy="20"
         r="8"
         fill="#4285f4"
         id="circle23"
         style="fill:#bd93f9;fill-opacity:1" />
    </g>
    <g
       id="vertical-slider-hover"
       transform="matrix(.75 0 0 .75 6.25 -3)"
       style="fill:#bd93f9;fill-opacity:1">
      <rect
         x="25"
         y="4"
         width="32"
         height="32"
         opacity="0"
         id="rect26"
         style="fill:#bd93f9;fill-opacity:1" />
      <circle
         cx="41"
         cy="20"
         r="16"
         fill="#4285f4"
         opacity=".2"
         id="circle28"
         style="fill:#bd93f9;fill-opacity:1" />
      <circle
         cx="41"
         cy="20"
         r="8"
         fill="#4285f4"
         id="circle30"
         style="fill:#bd93f9;fill-opacity:1" />
    </g>
    <g
       id="vertical-slider-focus"
       transform="matrix(.75 0 0 .75 31.25 -3)"
       style="fill:#bd93f9;fill-opacity:1">
      <rect
         x="25"
         y="4"
         width="32"
         height="32"
         opacity="0"
         id="rect33"
         style="fill:#bd93f9;fill-opacity:1" />
      <circle
         cx="41"
         cy="20"
         r="16"
         fill="#4285f4"
         opacity=".3"
         id="circle35"
         style="fill:#bd93f9;fill-opacity:1" />
      <circle
         cx="41"
         cy="20"
         r="8"
         fill="#4285f4"
         id="circle37"
         style="fill:#bd93f9;fill-opacity:1" />
    </g>
  </g>
  <path
     style="opacity:0.3;stroke-width:1"
     inkscape:connector-curvature="0"
     d="m 7,-20 v 1 h 1 v -1 z"
     class="ColorScheme-Text"
     id="groove-top" />
  <path
     style="opacity:0.3;stroke-width:1"
     inkscape:connector-curvature="0"
     d="m 6,-20.019723 c -0.5607333,0 -1,0.44793 -1,1.019723 h 1 z"
     class="ColorScheme-Text"
     id="groove-topleft" />
  <rect
     style="fill:#4e9a06"
     ry="2"
     rx="0"
     height="2"
     width="2"
     y="-24"
     x="-1"
     id="hint-tile-center" />
  <path
     style="opacity:0.3;stroke-width:0.99999994"
     inkscape:connector-curvature="0"
     d="m 10,-19 c 0,-0.516272 -0.439267,-0.920708 -1,-0.920708 V -19 Z"
     class="ColorScheme-Text"
     id="groove-topright" />
  <path
     style="opacity:0.3;stroke-width:1"
     inkscape:connector-curvature="0"
     d="m 7,-15 v -1 h 1 v 1 z"
     class="ColorScheme-Text"
     id="groove-bottom" />
  <path
     style="opacity:0.3;stroke-width:1"
     inkscape:connector-curvature="0"
     d="m 6,-15 c -0.4977652,0 -0.887704,-0.439267 -0.887704,-1 H 6 Z"
     class="ColorScheme-Text"
     id="groove-bottomleft" />
  <path
     style="opacity:0.3;stroke-width:1"
     inkscape:connector-curvature="0"
     d="m 10,-16 c 0,0.560733 -0.4392667,1 -1,1 v -1 z"
     class="ColorScheme-Text"
     id="groove-bottomright" />
  <path
     id="groove-center"
     class="ColorScheme-Text"
     d="m 7,-18 v 1 h 1 v -1 z"
     inkscape:connector-curvature="0"
     style="opacity:0.3;stroke-width:1" />
  <path
     id="groove-left"
     class="ColorScheme-Text"
     d="m 5,-18 v 1 h 1 v -1 z"
     inkscape:connector-curvature="0"
     style="opacity:0.3;stroke-width:1" />
  <path
     id="groove-right"
     class="ColorScheme-Text"
     d="m 9,-18 v 1 h 1 v -1 z"
     inkscape:connector-curvature="0"
     style="opacity:0.3;stroke-width:1" />
  <path
     style="fill:#a27fd6;stroke-width:1;fill-opacity:1"
     inkscape:connector-curvature="0"
     d="m 25,-20 v 1 h 1 v -1 z"
     class="ColorScheme-ButtonHover"
     id="groove-highlight-top" />
  <path
     style="fill:#a27fd6;stroke-width:1;fill-opacity:1"
     inkscape:connector-curvature="0"
     d="m 24,-20 c -0.560733,0 -1,0.439266 -1,1 h 1 z"
     class="ColorScheme-ButtonHover"
     id="groove-highlight-topleft" />
  <path
     style="fill:#a27fd6;stroke-width:1;fill-opacity:1"
     inkscape:connector-curvature="0"
     d="m 28,-19 c 0,-0.560734 -0.439267,-1 -1,-1 v 1 z"
     class="ColorScheme-ButtonHover"
     id="groove-highlight-topright" />
  <path
     style="fill:#a27fd6;stroke-width:1;fill-opacity:1"
     inkscape:connector-curvature="0"
     d="m 25,-15 v -1 h 1 v 1 z"
     class="ColorScheme-ButtonHover"
     id="groove-highlight-bottom" />
  <path
     style="fill:#a27fd6;stroke-width:1;fill-opacity:1"
     inkscape:connector-curvature="0"
     d="m 24,-15 c -0.569866,0 -1.016288,-0.439267 -1.016288,-1 H 24 Z"
     class="ColorScheme-ButtonHover"
     id="groove-highlight-bottomleft" />
  <path
     style="fill:#a27fd6;stroke-width:1;fill-opacity:1"
     inkscape:connector-curvature="0"
     d="m 28.039625,-16 c 0,0.560733 -0.456673,1 -1.039625,1 v -1 z"
     class="ColorScheme-ButtonHover"
     id="groove-highlight-bottomright" />
  <path
     style="fill:#a27fd6;stroke-width:1;fill-opacity:1"
     id="groove-highlight-center"
     class="ColorScheme-ButtonHover"
     d="m 25,-18 v 1 h 1 v -1 z"
     inkscape:connector-curvature="0" />
  <path
     style="fill:#a27fd6;stroke-width:1;fill-opacity:1"
     id="groove-highlight-left"
     class="ColorScheme-ButtonHover"
     d="m 23,-18 v 1 h 1 v -1 z"
     inkscape:connector-curvature="0" />
  <path
     style="fill:#a27fd6;stroke-width:1;fill-opacity:1"
     id="groove-highlight-right"
     class="ColorScheme-ButtonHover"
     d="m 27,-18 v 1 h 1 v -1 z"
     inkscape:connector-curvature="0" />
  <circle
     id="hint-handle-size"
     cx="50.955"
     cy="-15.313"
     r="12"
     fill="#ff2a2a" />
  <path
     style="fill:#bd93f9;fill-opacity:1;stroke:none;stroke-width:0.35627809;stroke-opacity:1"
     d="m 59.211846,48.146295 c -1.705656,-0.840684 -2.674195,-2.408975 -2.858225,-4.628136 -0.187207,-2.257464 0.340806,-3.725102 1.774068,-4.931113 2.167982,-1.824236 5.347755,-1.886345 7.558174,-0.147629 3.166304,2.490615 2.619232,8.009693 -0.962422,9.709299 -1.570668,0.745331 -3.996651,0.744265 -5.511595,-0.0024 z"
     id="path858"
     inkscape:connector-curvature="0" />
  <path
     style="fill:#bd93f9;fill-opacity:1;stroke:none;stroke-width:0.17813905;stroke-opacity:1"
     d="m 60.623772,48.756896 c -1.74715,-0.444199 -2.980204,-1.405265 -3.841745,-2.994328 -0.568313,-1.048221 -0.611667,-1.242094 -0.61083,-2.731554 0.0011,-1.890102 0.341115,-2.804915 1.516734,-4.08031 2.960856,-3.21215 8.406311,-2.075147 9.902261,2.067578 0.444103,1.229852 0.372646,3.134023 -0.161383,4.300496 -1.213534,2.650708 -4.122134,4.120224 -6.805037,3.438118 z"
     id="path860"
     inkscape:connector-curvature="0" />
  <path
     style="fill:#bd93f9;fill-opacity:1;stroke:none;stroke-width:0.17813905;stroke-opacity:1"
     d="m 35.328029,47.69132 c -1.70091,-0.563391 -2.977129,-1.701101 -3.728967,-3.324263 -0.909023,-1.962512 -0.494128,-4.620806 0.983129,-6.299058 1.9138,-2.174192 5.274748,-2.596388 7.728817,-0.97088 2.208601,1.462916 3.164464,4.468675 2.222076,6.987431 -0.479019,1.280293 -1.712055,2.633857 -2.951921,3.240467 -1.171722,0.57327 -3.121349,0.741183 -4.253134,0.366303 z"
     id="path862"
     inkscape:connector-curvature="0" />
  <path
     style="fill:#bd93f9;fill-opacity:1;stroke:none;stroke-width:0.17813905;stroke-opacity:1"
     d="m 34.793611,47.498042 c -1.387931,-0.578048 -2.887699,-2.121002 -3.361879,-3.458685 -0.501352,-1.414337 -0.35385,-3.543825 0.332864,-4.805544 2.066564,-3.796959 7.339934,-4.240144 9.92852,-0.834414 2.245546,2.954401 1.215216,7.297786 -2.118023,8.928588 -1.452038,0.710416 -3.32417,0.776999 -4.781482,0.170055 z"
     id="path866"
     inkscape:connector-curvature="0" />
  <path
     style="fill:#bd93f9;fill-opacity:1;stroke:none;stroke-width:0.17813905;stroke-opacity:1"
     d="M 10.906429,48.821657 C 9.648312,48.560873 8.5491742,47.924719 7.6423111,46.932466 4.9438559,43.979926 5.9000854,39.339924 9.5605794,37.624273 10.385961,37.237422 10.82271,37.15271 11.991814,37.15271 c 2.427686,0 4.239368,1.115971 5.295977,3.262248 0.511648,1.039305 0.582511,1.35749 0.581789,2.612311 -6.94e-4,1.201654 -0.07984,1.590035 -0.497762,2.442484 -1.184581,2.416232 -3.9822,3.866624 -6.465389,3.351904 z"
     id="path868"
     inkscape:connector-curvature="0" />
  <path
     style="fill:#bd93f9;fill-opacity:1;stroke:none;stroke-width:0.17813905;stroke-opacity:1"
     d="M 10.999867,17.820014 C 9.0605841,17.498259 7.063834,15.839723 6.4412979,14.033584 5.442743,11.136517 6.6729761,8.0694196 9.3651764,6.7440538 10.415289,6.2270849 10.731435,6.1562499 11.988069,6.1563747 c 2.431827,2.422e-4 4.242489,1.1148441 5.299722,3.2623904 0.511648,1.0393049 0.582511,1.3574899 0.581789,2.6123099 -6.94e-4,1.201655 -0.07984,1.590036 -0.497762,2.442485 -1.179127,2.405106 -3.787885,3.775187 -6.371951,3.346454 z"
     id="path870"
     inkscape:connector-curvature="0" />
  <path
     style="fill:#bd93f9;fill-opacity:1;stroke:none;stroke-width:0.17813905;stroke-opacity:1"
     d="m 35.813015,17.819851 c -1.883962,-0.387538 -3.641439,-1.894746 -4.326304,-3.710228 -0.527731,-1.398941 -0.425871,-3.472972 0.233131,-4.7468874 0.592388,-1.1451453 1.766683,-2.2788039 2.89563,-2.7954271 1.366016,-0.625109 3.562776,-0.5860347 4.934917,0.087778 3.341216,1.6407603 4.36263,5.8190585 2.175192,8.8980545 -1.230283,1.73172 -3.77351,2.706721 -5.912566,2.26671 z"
     id="path872"
     inkscape:connector-curvature="0" />
  <path
     style="fill:#bd93f9;fill-opacity:1;stroke:none;stroke-width:0.17813905;stroke-opacity:1"
     d="m 61.158189,17.888723 c -2.203622,-0.53946 -3.461522,-1.434853 -4.369867,-3.110538 -0.575367,-1.061416 -0.617964,-1.250777 -0.617125,-2.743364 7.09e-4,-1.26421 0.08211,-1.779389 0.384938,-2.4361706 0.54356,-1.1788949 1.71138,-2.3727728 2.884526,-2.9488891 0.858808,-0.4217491 1.225197,-0.4935285 2.519154,-0.4935285 1.816516,0 3.035593,0.4837433 4.219665,1.6744097 2.876089,2.8921065 1.994743,7.8761415 -1.681633,9.5096835 -1.011047,0.449243 -2.647208,0.717913 -3.339658,0.548397 z"
     id="path874"
     inkscape:connector-curvature="0" />
  <path
     style="fill:#bd93f9;fill-opacity:1;stroke:none;stroke-width:0.17813905;stroke-opacity:1"
     d="m 60.607802,48.807019 c -2.734488,-0.654204 -4.690232,-3.356136 -4.486845,-6.198741 0.331241,-4.62952 5.367515,-7.052166 9.277026,-4.462613 1.580368,1.046792 2.477104,2.820961 2.479859,4.906337 0.0031,2.320805 -1.303266,4.339077 -3.439383,5.313819 -1.128302,0.514861 -2.744627,0.701022 -3.830657,0.441198 z"
     id="path876"
     inkscape:connector-curvature="0" />
  <path
     style="fill:#bd93f9;fill-opacity:1;stroke:none;stroke-width:0.17813905;stroke-opacity:1"
     d="M 35.417098,47.773718 C 33.681026,47.20293 31.917394,45.5415 31.402725,43.991977 c -0.466621,-1.404863 -0.304742,-3.533378 0.361871,-4.758164 1.88098,-3.45598 6.386631,-4.20567 9.32449,-1.551491 1.628079,1.470872 2.263626,4.238608 1.461431,6.364375 -0.498792,1.321769 -1.717645,2.665915 -2.975424,3.28129 -0.760773,0.372211 -1.307444,0.497388 -2.351901,0.538539 -0.748411,0.02949 -1.561153,-0.01228 -1.806094,-0.09281 z"
     id="path878"
     inkscape:connector-curvature="0" />
  <path
     style="opacity:0.2;fill:#bd93f9;fill-opacity:1;stroke:none;stroke-width:0.17813905;stroke-opacity:1"
     d="M 34.099987,53.622214 C 31.841099,53.039361 30.289223,52.142951 28.56985,50.427839 27.345744,49.206767 26.903827,48.613233 26.312055,47.395421 23.979103,42.594415 24.870913,37.137684 28.582242,33.50479 c 4.730742,-4.630762 11.909816,-4.684806 16.689221,-0.125636 3.45995,3.300517 4.623848,8.233423 2.998897,12.710114 -0.614307,1.692399 -1.471615,3.008589 -2.893387,4.4421 -2.86446,2.888111 -7.324786,4.110617 -11.276986,3.090846 z m 4.371515,-5.789275 c 2.66393,-0.690084 4.347043,-2.75537 4.494047,-5.514481 0.104655,-1.964292 -0.359905,-3.190953 -1.725749,-4.556796 -1.365843,-1.365844 -2.592505,-1.830405 -4.556796,-1.725748 -2.79305,0.148812 -4.833213,1.834948 -5.53258,4.572519 -0.808003,3.162809 1.128556,6.384109 4.36209,7.255962 1.106379,0.298312 1.71079,0.291886 2.958988,-0.03146 z"
     id="path889"
     inkscape:connector-curvature="0" />
  <path
     style="opacity:0.2;fill:#bd93f9;fill-opacity:1;stroke:none;stroke-width:0.17813905;stroke-opacity:1"
     d="m 60.493289,54.865495 c -2.67792,-0.351569 -4.911087,-1.469817 -6.896901,-3.453594 -3.448496,-3.444957 -4.479032,-8.240209 -2.73906,-12.745293 2.06061,-5.335272 7.771465,-8.505074 13.354897,-7.412616 7.070019,1.383324 11.335245,8.532812 9.173296,15.376533 -1.723604,5.456131 -7.23645,8.977485 -12.892232,8.23497 z m 4.173893,-6.447468 c 1.213432,-0.622907 2.565897,-2.131837 3.002862,-3.350262 0.761544,-2.123474 0.23436,-4.620141 -1.31046,-6.20615 -1.035789,-1.063405 -1.931127,-1.537502 -3.420931,-1.811445 -0.959899,-0.176504 -1.319299,-0.163193 -2.295948,0.08503 -2.755873,0.700429 -4.441828,2.734905 -4.590572,5.539535 -0.104201,1.964744 0.360472,3.191173 1.72673,4.557431 1.37571,1.37571 2.453174,1.788201 4.467093,1.71016 1.206299,-0.04675 1.698614,-0.153353 2.421226,-0.524299 z"
     id="path891"
     inkscape:connector-curvature="0" />
  <path
     style="opacity:0.2;fill:#bd93f9;fill-opacity:1;stroke:none;stroke-width:0.17813905;stroke-opacity:1"
     d="M 60.599883,23.863688 C 57.913171,23.570591 55.615026,22.438811 53.602104,20.417453 50.144837,16.945699 49.116672,12.172991 50.856378,7.6718929 53.956933,-0.3500927 64.357415,-2.5313122 70.451149,3.5624207 c 2.422062,2.4220625 3.74057,5.9011236 3.48694,9.2007583 -0.53166,6.916718 -6.460401,11.850819 -13.338206,11.100509 z m 3.549885,-6.245265 c 1.391233,-0.520527 2.71477,-1.79232 3.358861,-3.227544 2.013551,-4.4867913 -2.137718,-9.4509706 -6.894163,-8.244192 -2.726174,0.6916693 -4.414181,2.7383884 -4.562333,5.531856 -0.104201,1.964744 0.360472,3.191173 1.72673,4.557431 1.721489,1.72149 4.090681,2.23559 6.370905,1.382449 z"
     id="path893"
     inkscape:connector-curvature="0" />
  <path
     style="opacity:0.2;fill:#bd93f9;fill-opacity:1;stroke:none;stroke-width:0.17813905;stroke-opacity:1"
     d="M 34.545335,23.785817 C 33.8595,23.637908 32.540282,23.146219 31.613741,22.693176 30.249088,22.025913 29.673896,21.61132 28.585377,20.510356 26.226153,18.124162 25.212081,15.858133 25.06006,12.632737 24.885505,8.929253 25.950956,6.1676525 28.561534,3.557074 31.173923,0.94468519 33.937657,-0.12090508 37.637197,0.05784451 40.86382,0.21374426 43.299788,1.3249258 45.6373,3.7071401 c 1.012448,1.0318097 1.464539,1.6748804 2.075955,2.9529156 1.032234,2.1576628 1.263489,3.192087 1.24141,5.5529043 -0.01482,1.583587 -0.105317,2.225358 -0.471747,3.345104 -1.241118,3.792652 -4.154438,6.711592 -7.876941,7.89214 -1.821925,0.577803 -4.301066,0.715088 -6.060642,0.335613 z m 4.668154,-6.168586 c 1.421312,-0.531781 2.879897,-1.999131 3.42547,-3.446054 0.3307,-0.877052 0.389033,-1.321793 0.326937,-2.492634 C 42.889204,10.232464 42.565203,9.3320722 41.700836,8.1629523 40.680695,6.783138 38.123927,5.745841 36.303631,5.973272 c -3.587079,0.4481759 -6.117514,4.134615 -5.149558,7.502081 0.628419,2.186235 2.109887,3.727414 4.191735,4.360684 0.930229,0.282963 2.810959,0.176564 3.867681,-0.218806 z"
     id="path895"
     inkscape:connector-curvature="0" />
  <path
     style="opacity:0.2;fill:#bd93f9;fill-opacity:1;stroke:none;stroke-width:0.17813905;stroke-opacity:1"
     d="m 34.545335,53.708544 c -2.537581,-0.556127 -5.176483,-2.184346 -6.865903,-4.236305 -0.86687,-1.052896 -1.976105,-3.314079 -2.329598,-4.748904 -0.13276,-0.53887 -0.239407,-1.821471 -0.236994,-2.850224 0.0078,-3.331478 1.074702,-5.834414 3.538243,-8.300783 1.136049,-1.137353 1.761029,-1.598701 2.954958,-2.181293 2.203367,-1.075161 3.387921,-1.325347 5.863674,-1.238451 3.306069,0.11604 5.607643,1.114565 7.936121,3.443042 1.425391,1.42539 2.227141,2.683409 2.909987,4.566028 0.427416,1.178394 0.474242,1.551256 0.477274,3.800526 0.0031,2.271671 -0.04034,2.617444 -0.486963,3.879589 -1.322262,3.736684 -4.516619,6.720796 -8.238489,7.696257 -1.598765,0.419018 -4.043906,0.494519 -5.52231,0.170518 z m 4.950748,-6.27269 c 1.323985,-0.580057 2.629774,-1.977476 3.159434,-3.381135 0.57661,-1.528081 0.442539,-3.318882 -0.361394,-4.827216 -1.060776,-1.990219 -2.726154,-3.054959 -4.987633,-3.188784 -1.707949,-0.101069 -2.993469,0.351306 -4.276574,1.504928 -1.692904,1.522066 -2.405057,3.712997 -1.87841,5.778909 0.971984,3.812862 4.763935,5.682031 8.344577,4.113298 z"
     id="path869"
     inkscape:connector-curvature="0" />
  <path
     style="opacity:0.2;fill:#bd93f9;fill-opacity:1;stroke:none;stroke-width:0.17813905;stroke-opacity:1"
     d="M 33.65464,23.457166 C 31.377413,22.712146 30.20462,21.99232 28.552044,20.325339 27.305427,19.067856 26.876817,18.486832 26.30107,17.273922 25.471345,15.525962 25.248299,14.685548 25.098516,12.742824 24.537667,5.4684541 31.071292,-0.7526277 38.316515,0.15712164 c 3.070473,0.38554519 5.183617,1.43659986 7.26986,3.61594986 1.423791,1.4873342 2.54395,3.4851762 3.030174,5.4044173 0.347059,1.3699252 0.347786,4.3402402 0.0014,5.7146652 -1.039338,4.123888 -4.475979,7.590592 -8.560336,8.635195 -1.983879,0.50739 -4.729578,0.477295 -6.402998,-0.07018 z m 5.885952,-5.992135 c 1.134979,-0.548748 2.383221,-1.803717 2.920525,-2.936263 0.619164,-1.305096 0.70258,-3.239775 0.197402,-4.5784641 C 41.65782,7.2985158 38.840462,5.6376331 36.088236,6.0770056 32.352981,6.6733112 30.112932,10.446055 31.334462,14.08342 c 0.440879,1.31281 2.088395,2.987492 3.478082,3.535431 1.343972,0.529916 3.455991,0.461204 4.728048,-0.15382 z"
     id="path871"
     inkscape:connector-curvature="0" />
  <path
     style="opacity:0.2;fill:#bd93f9;fill-opacity:1;stroke:none;stroke-width:0.17813905;stroke-opacity:1"
     d="m 59.149313,54.591916 c -3.318678,-0.802714 -6.292993,-3.224427 -7.854091,-6.394869 -0.859136,-1.744823 -1.160989,-3.085409 -1.163212,-5.166033 -0.0023,-2.143699 0.293692,-3.396951 1.283181,-5.43324 0.596481,-1.227513 1.02615,-1.801722 2.269502,-3.032962 2.443001,-2.419204 4.934937,-3.452582 8.303004,-3.443163 2.097811,0.0059 3.536374,0.33963 5.43324,1.260575 1.867437,0.906657 4.279178,3.321642 5.208545,5.21555 0.840017,1.711826 1.246152,3.438818 1.256786,5.344171 0.01149,2.057598 -0.289093,3.346255 -1.243712,5.332149 -1.478472,3.075665 -4.323812,5.402205 -7.645999,6.251876 -1.638423,0.419039 -4.264974,0.448661 -5.847244,0.06595 z m 5.001408,-5.974308 c 1.43509,-0.536936 2.915123,-2.02013 3.441574,-3.448925 0.31739,-0.861399 0.380471,-1.345414 0.32503,-2.493947 -0.08258,-1.710805 -0.538295,-2.774935 -1.675294,-3.911933 -1.180502,-1.180503 -2.182213,-1.596744 -4.022238,-1.671363 -1.374009,-0.05572 -1.666247,-0.0095 -2.583016,0.408932 -1.26119,0.575571 -2.423092,1.668606 -3.038658,2.858557 -0.672289,1.299603 -0.761686,3.345574 -0.210101,4.808441 0.532441,1.412092 2.004447,2.911367 3.374888,3.437406 1.326764,0.509275 3.047504,0.514306 4.387815,0.01283 z"
     id="path873"
     inkscape:connector-curvature="0" />
  <path
     style="opacity:0.2;fill:#bd93f9;fill-opacity:1;stroke:none;stroke-width:0.17813905;stroke-opacity:1"
     d="M 59.192418,23.605511 C 55.08842,22.610272 51.65712,19.27043 50.506373,15.150987 50.089792,13.659712 49.995028,10.989132 50.308981,9.5882117 c 0.558912,-2.4939758 1.475261,-4.1253421 3.381245,-6.0195928 1.670376,-1.6600934 3.197662,-2.5529661 5.358176,-3.13246525 1.508049,-0.404493 4.319186,-0.40868331 5.878589,-0.008763 4.180068,1.07200975 7.523251,4.42172145 8.651242,8.66813625 0.400357,1.5071731 0.407871,4.1709761 0.01609,5.7004501 -1.095723,4.277501 -4.434383,7.668989 -8.597756,8.7338 -1.623079,0.415114 -4.262642,0.449556 -5.80414,0.07573 z m 5.428206,-6.199557 c 1.101301,-0.538817 2.221302,-1.657437 2.818416,-2.814942 0.561095,-1.087684 0.684736,-3.395079 0.24459,-4.564543 -0.934685,-2.4834436 -3.030612,-3.9707398 -5.632437,-3.9968481 -1.613934,-0.016195 -2.837091,0.4502135 -4.026524,1.5353758 -1.342561,1.2248669 -1.867988,2.3257867 -1.963239,4.1135463 -0.09331,1.751251 0.32802,3.033718 1.394816,4.245663 1.344679,1.527636 2.727625,2.106359 4.823362,2.018436 1.034915,-0.04342 1.595473,-0.171927 2.341016,-0.536688 z"
     id="path875"
     inkscape:connector-curvature="0" />
</svg>
